{
	"asset":{
		"generator":"Khronos glTF Blender I/O v4.4.55",
		"version":"2.0"
	},
	"scene":0,
	"scenes":[
		{
			"name":"Scene",
			"nodes":[
				0,
				1,
				2,
				3,
				4,
				5,
				6,
				7,
				8,
				9,
				10,
				11,
				12,
				13,
				14,
				15,
				16,
				17,
				18
			]
		}
	],
	"nodes":[
		{
			"mesh":0,
			"name":"Trem",
			"scale":[
				1,
				0.8999999761581421,
				2.9000000953674316
			],
			"translation":[
				0,
				1.0931577682495117,
				3.063946008682251
			]
		},
		{
			"mesh":1,
			"name":"Circle",
			"rotation":[
				0,
				0,
				-0.7071068286895752,
				0.7071068286895752
			],
			"translation":[
				0.2845827341079712,
				0.2919413447380066,
				4.68383264541626
			]
		},
		{
			"mesh":1,
			"name":"Circle.001",
			"rotation":[
				0,
				0,
				-0.7071068286895752,
				0.7071068286895752
			],
			"translation":[
				0.2845827341079712,
				0.2919413447380066,
				4.0257415771484375
			]
		},
		{
			"mesh":1,
			"name":"Circle.002",
			"rotation":[
				0,
				0,
				-0.7071068286895752,
				0.7071068286895752
			],
			"translation":[
				-0.46663203835487366,
				0.2919413447380066,
				1.8305103778839111
			]
		},
		{
			"mesh":1,
			"name":"Circle.003",
			"rotation":[
				0,
				0,
				-0.7071068286895752,
				0.7071068286895752
			],
			"translation":[
				0.2845830023288727,
				0.2919413447380066,
				1.1724193096160889
			]
		},
		{
			"mesh":1,
			"name":"Circle.004",
			"rotation":[
				0,
				0,
				-0.7071068286895752,
				0.7071068286895752
			],
			"translation":[
				0.2845827341079712,
				0.2919413447380066,
				1.8305103778839111
			]
		},
		{
			"mesh":1,
			"name":"Circle.005",
			"rotation":[
				0,
				0,
				-0.7071068286895752,
				0.7071068286895752
			],
			"translation":[
				-0.46663177013397217,
				0.2919413447380066,
				1.1724193096160889
			]
		},
		{
			"mesh":1,
			"name":"Circle.006",
			"rotation":[
				0,
				0,
				-0.7071068286895752,
				0.7071068286895752
			],
			"translation":[
				-0.46663203835487366,
				0.2919413447380066,
				4.0257415771484375
			]
		},
		{
			"mesh":1,
			"name":"Circle.007",
			"rotation":[
				0,
				0,
				-0.7071068286895752,
				0.7071068286895752
			],
			"translation":[
				-0.46663203835487366,
				0.2919413447380066,
				4.68383264541626
			]
		},
		{
			"mesh":2,
			"name":"Vagao",
			"rotation":[
				0,
				0,
				-1,
				0
			],
			"scale":[
				-1,
				-0.8999999761581421,
				-2.9000000953674316
			],
			"translation":[
				0,
				1.0931577682495117,
				-3.1503255367279053
			]
		},
		{
			"mesh":3,
			"name":"Imenda",
			"scale":[
				0.5600000023841858,
				0.7399999499320984,
				0.20999999344348907
			],
			"translation":[
				0,
				1.0767533779144287,
				-0.04587964341044426
			]
		},
		{
			"mesh":1,
			"name":"Circle.015",
			"rotation":[
				0,
				0,
				0.7071068286895752,
				0.7071068286895752
			],
			"scale":[
				-1,
				-1,
				-1
			],
			"translation":[
				0.2845827341079712,
				0.2919413447380066,
				-4.770212173461914
			]
		},
		{
			"mesh":1,
			"name":"Circle.014",
			"rotation":[
				0,
				0,
				0.7071068286895752,
				0.7071068286895752
			],
			"scale":[
				-1,
				-1,
				-1
			],
			"translation":[
				0.2845827341079712,
				0.2919413447380066,
				-4.112121105194092
			]
		},
		{
			"mesh":1,
			"name":"Circle.013",
			"rotation":[
				0,
				0,
				0.7071068286895752,
				0.7071068286895752
			],
			"scale":[
				-1,
				-1,
				-1
			],
			"translation":[
				-0.46663203835487366,
				0.2919413447380066,
				-1.9168899059295654
			]
		},
		{
			"mesh":1,
			"name":"Circle.012",
			"rotation":[
				0,
				0,
				0.7071068286895752,
				0.7071068286895752
			],
			"scale":[
				-1,
				-1,
				-1
			],
			"translation":[
				0.2845830023288727,
				0.2919413447380066,
				-1.2587988376617432
			]
		},
		{
			"mesh":1,
			"name":"Circle.011",
			"rotation":[
				0,
				0,
				0.7071068286895752,
				0.7071068286895752
			],
			"scale":[
				-1,
				-1,
				-1
			],
			"translation":[
				0.2845827341079712,
				0.2919413447380066,
				-1.9168899059295654
			]
		},
		{
			"mesh":1,
			"name":"Circle.010",
			"rotation":[
				0,
				0,
				0.7071068286895752,
				0.7071068286895752
			],
			"scale":[
				-1,
				-1,
				-1
			],
			"translation":[
				-0.46663179993629456,
				0.2919413447380066,
				-1.2587988376617432
			]
		},
		{
			"mesh":1,
			"name":"Circle.009",
			"rotation":[
				0,
				0,
				0.7071068286895752,
				0.7071068286895752
			],
			"scale":[
				-1,
				-1,
				-1
			],
			"translation":[
				-0.46663203835487366,
				0.2919413447380066,
				-4.112121105194092
			]
		},
		{
			"mesh":1,
			"name":"Circle.008",
			"rotation":[
				0,
				0,
				0.7071068286895752,
				0.7071068286895752
			],
			"scale":[
				-1,
				-1,
				-1
			],
			"translation":[
				-0.46663203835487366,
				0.2919413447380066,
				-4.770212173461914
			]
		}
	],
	"materials":[
		{
			"doubleSided":true,
			"name":"Material.002"
		},
		{
			"doubleSided":true,
			"name":"Material.005"
		},
		{
			"doubleSided":true,
			"name":"Material.003"
		},
		{
			"doubleSided":true,
			"name":"Material.007"
		},
		{
			"doubleSided":true,
			"name":"Material.009"
		},
		{
			"doubleSided":true,
			"name":"Material.004"
		}
	],
	"meshes":[
		{
			"name":"Cube.001",
			"primitives":[
				{
					"attributes":{
						"POSITION":0,
						"NORMAL":1,
						"TEXCOORD_0":2
					},
					"indices":3
				},
				{
					"attributes":{
						"POSITION":4,
						"NORMAL":5,
						"TEXCOORD_0":6
					},
					"indices":7,
					"material":0
				},
				{
					"attributes":{
						"POSITION":8,
						"NORMAL":9,
						"TEXCOORD_0":10
					},
					"indices":11,
					"material":1
				}
			]
		},
		{
			"name":"Circle.006",
			"primitives":[
				{
					"attributes":{
						"POSITION":12,
						"NORMAL":13,
						"TEXCOORD_0":14
					},
					"indices":15,
					"material":2
				}
			]
		},
		{
			"name":"Cube.002",
			"primitives":[
				{
					"attributes":{
						"POSITION":16,
						"NORMAL":17,
						"TEXCOORD_0":18
					},
					"indices":19,
					"material":3
				},
				{
					"attributes":{
						"POSITION":20,
						"NORMAL":21,
						"TEXCOORD_0":22
					},
					"indices":23,
					"material":4
				}
			]
		},
		{
			"name":"Cube",
			"primitives":[
				{
					"attributes":{
						"POSITION":24,
						"NORMAL":25,
						"TEXCOORD_0":26
					},
					"indices":27,
					"material":5
				}
			]
		}
	],
	"accessors":[
		{
			"bufferView":0,
			"componentType":5126,
			"count":56,
			"max":[
				0.7760720252990723,
				0.8947337865829468,
				0.887507975101471
			],
			"min":[
				0.7760720252990723,
				-0.8947337865829468,
				-0.8947337865829468
			],
			"type":"VEC3"
		},
		{
			"bufferView":1,
			"componentType":5126,
			"count":56,
			"type":"VEC3"
		},
		{
			"bufferView":2,
			"componentType":5126,
			"count":56,
			"type":"VEC2"
		},
		{
			"bufferView":3,
			"componentType":5123,
			"count":126,
			"type":"SCALAR"
		},
		{
			"bufferView":4,
			"componentType":5126,
			"count":368,
			"max":[
				0.7760720252990723,
				1,
				0.9929860830307007
			],
			"min":[
				-0.004302717745304108,
				-1,
				-1
			],
			"type":"VEC3"
		},
		{
			"bufferView":5,
			"componentType":5126,
			"count":368,
			"type":"VEC3"
		},
		{
			"bufferView":6,
			"componentType":5126,
			"count":368,
			"type":"VEC2"
		},
		{
			"bufferView":7,
			"componentType":5123,
			"count":930,
			"type":"SCALAR"
		},
		{
			"bufferView":8,
			"componentType":5126,
			"count":77,
			"max":[
				0.7096579074859619,
				0.917572557926178,
				0.9708608984947205
			],
			"min":[
				-0.004302717745304108,
				-0.3906961679458618,
				-0.8193353414535522
			],
			"type":"VEC3"
		},
		{
			"bufferView":9,
			"componentType":5126,
			"count":77,
			"type":"VEC3"
		},
		{
			"bufferView":10,
			"componentType":5126,
			"count":77,
			"type":"VEC2"
		},
		{
			"bufferView":11,
			"componentType":5123,
			"count":144,
			"type":"SCALAR"
		},
		{
			"bufferView":12,
			"componentType":5126,
			"count":48,
			"max":[
				0.30000001192092896,
				0.15169085562229156,
				0.30000001192092896
			],
			"min":[
				-0.30000001192092896,
				0,
				-0.30000001192092896
			],
			"type":"VEC3"
		},
		{
			"bufferView":13,
			"componentType":5126,
			"count":48,
			"type":"VEC3"
		},
		{
			"bufferView":14,
			"componentType":5126,
			"count":48,
			"type":"VEC2"
		},
		{
			"bufferView":15,
			"componentType":5123,
			"count":84,
			"type":"SCALAR"
		},
		{
			"bufferView":16,
			"componentType":5126,
			"count":39,
			"max":[
				0.7335124015808105,
				0.9354783892631531,
				0.8128137588500977
			],
			"min":[
				0,
				-0.5793382525444031,
				-0.8947337865829468
			],
			"type":"VEC3"
		},
		{
			"bufferView":17,
			"componentType":5126,
			"count":39,
			"type":"VEC3"
		},
		{
			"bufferView":18,
			"componentType":5126,
			"count":39,
			"type":"VEC2"
		},
		{
			"bufferView":19,
			"componentType":5123,
			"count":84,
			"type":"SCALAR"
		},
		{
			"bufferView":20,
			"componentType":5126,
			"count":507,
			"max":[
				0.7760720252990723,
				1,
				0.9934784173965454
			],
			"min":[
				0,
				-1,
				-1
			],
			"type":"VEC3"
		},
		{
			"bufferView":21,
			"componentType":5126,
			"count":507,
			"type":"VEC3"
		},
		{
			"bufferView":22,
			"componentType":5126,
			"count":507,
			"type":"VEC2"
		},
		{
			"bufferView":23,
			"componentType":5123,
			"count":1326,
			"type":"SCALAR"
		},
		{
			"bufferView":24,
			"componentType":5126,
			"count":60,
			"max":[
				1,
				1,
				1
			],
			"min":[
				-1,
				-1,
				-1
			],
			"type":"VEC3"
		},
		{
			"bufferView":25,
			"componentType":5126,
			"count":60,
			"type":"VEC3"
		},
		{
			"bufferView":26,
			"componentType":5126,
			"count":60,
			"type":"VEC2"
		},
		{
			"bufferView":27,
			"componentType":5123,
			"count":96,
			"type":"SCALAR"
		}
	],
	"bufferViews":[
		{
			"buffer":0,
			"byteLength":672,
			"byteOffset":0,
			"target":34962
		},
		{
			"buffer":0,
			"byteLength":672,
			"byteOffset":672,
			"target":34962
		},
		{
			"buffer":0,
			"byteLength":448,
			"byteOffset":1344,
			"target":34962
		},
		{
			"buffer":0,
			"byteLength":252,
			"byteOffset":1792,
			"target":34963
		},
		{
			"buffer":0,
			"byteLength":4416,
			"byteOffset":2044,
			"target":34962
		},
		{
			"buffer":0,
			"byteLength":4416,
			"byteOffset":6460,
			"target":34962
		},
		{
			"buffer":0,
			"byteLength":2944,
			"byteOffset":10876,
			"target":34962
		},
		{
			"buffer":0,
			"byteLength":1860,
			"byteOffset":13820,
			"target":34963
		},
		{
			"buffer":0,
			"byteLength":924,
			"byteOffset":15680,
			"target":34962
		},
		{
			"buffer":0,
			"byteLength":924,
			"byteOffset":16604,
			"target":34962
		},
		{
			"buffer":0,
			"byteLength":616,
			"byteOffset":17528,
			"target":34962
		},
		{
			"buffer":0,
			"byteLength":288,
			"byteOffset":18144,
			"target":34963
		},
		{
			"buffer":0,
			"byteLength":576,
			"byteOffset":18432,
			"target":34962
		},
		{
			"buffer":0,
			"byteLength":576,
			"byteOffset":19008,
			"target":34962
		},
		{
			"buffer":0,
			"byteLength":384,
			"byteOffset":19584,
			"target":34962
		},
		{
			"buffer":0,
			"byteLength":168,
			"byteOffset":19968,
			"target":34963
		},
		{
			"buffer":0,
			"byteLength":468,
			"byteOffset":20136,
			"target":34962
		},
		{
			"buffer":0,
			"byteLength":468,
			"byteOffset":20604,
			"target":34962
		},
		{
			"buffer":0,
			"byteLength":312,
			"byteOffset":21072,
			"target":34962
		},
		{
			"buffer":0,
			"byteLength":168,
			"byteOffset":21384,
			"target":34963
		},
		{
			"buffer":0,
			"byteLength":6084,
			"byteOffset":21552,
			"target":34962
		},
		{
			"buffer":0,
			"byteLength":6084,
			"byteOffset":27636,
			"target":34962
		},
		{
			"buffer":0,
			"byteLength":4056,
			"byteOffset":33720,
			"target":34962
		},
		{
			"buffer":0,
			"byteLength":2652,
			"byteOffset":37776,
			"target":34963
		},
		{
			"buffer":0,
			"byteLength":720,
			"byteOffset":40428,
			"target":34962
		},
		{
			"buffer":0,
			"byteLength":720,
			"byteOffset":41148,
			"target":34962
		},
		{
			"buffer":0,
			"byteLength":480,
			"byteOffset":41868,
			"target":34962
		},
		{
			"buffer":0,
			"byteLength":192,
			"byteOffset":42348,
			"target":34963
		}
	],
	"buffers":[
		{
			"byteLength":42540,
			"uri":"trem.bin"
		}
	]
}
